<?xml version="1.0" encoding="utf-8"?>
<!-- Generator: Adobe Illustrator 28.2.0, SVG Export Plug-In . SVG Version: 6.00 Build 0)  -->
<svg version="1.1" id="Layer_1" xmlns:serif="http://www.serif.com/"
	 xmlns="http://www.w3.org/2000/svg" xmlns:xlink="http://www.w3.org/1999/xlink" x="0px" y="0px" viewBox="0 0 456 456"
	 style="enable-background:new 0 0 456 456;" xml:space="preserve">
<style type="text/css">
	.st0{fill:none;stroke:#FFFFFF;stroke-width:4;stroke-linecap:square;stroke-miterlimit:8;}
	.st1{fill:#FFFFFF;}
</style>
<path class="st0" d="M259.8,276c0,8.6-7.2,15.8-15.9,15.8c-32.6,0-32.6,0-32.6,0c-9.4,0-15.9-7.2-15.9-15.8c0,0,0-8.6,0-36.7
	c0-28.8-21.7-47.4-21.7-47.4c-7.2-7.2-7.2-7.2-7.2-7.2C154.2,171,147,152.3,147,132.2c0-44.6,36.2-80.5,81-80.5s81,35.9,81,80.5
	c0,20.1-7.2,38.8-19.5,52.5 M291.7,181.8c-2.2,2.9-2.2,2.9-2.2,2.9s-29.7,23-29.7,57.5c0,33.8,0,33.8,0,33.8l0,0 M195.4,245.1
	c64.4,0,64.4,0,64.4,0"/>
<g>
	<path class="st1" d="M90.7,381H71.7v-33.6h18.2v4.8H77.4v9.4H89v4.8H77.4v9.8h13.2V381z"/>
	<path class="st1" d="M115.3,381h-5.4v-3.7h-0.1c-0.8,1.4-1.9,2.5-3.1,3.2s-2.7,1.1-4.3,1.1c-2.3,0-4.1-0.7-5.6-2s-2.2-3.1-2.2-5.4
		c0-2.2,0.7-4,2.2-5.4s3.6-2.3,6.6-2.7l6.5-0.9v-0.5c0-1.7-0.4-2.9-1.3-3.6s-2-1.1-3.5-1.1c-1.2,0-2.4,0.2-3.6,0.6s-2.4,1.1-3.5,1.9
		l-2.4-3.3c1.5-1.1,3-2,4.7-2.5s3.4-0.8,5.3-0.8c3.3,0,5.7,0.8,7.3,2.4s2.4,4.1,2.4,7.3V381z M110,371v-2.1l-5.3,0.7
		c-1.6,0.2-2.7,0.6-3.5,1.3s-1.2,1.5-1.2,2.7c0,1.2,0.4,2.1,1.1,2.8s1.7,1,2.8,1c1.8,0,3.2-0.6,4.4-1.8S110,372.8,110,371z"/>
	<path class="st1" d="M120.2,379.1l2.4-3.9c0.9,0.7,1.9,1.2,3,1.6s2.2,0.6,3.5,0.6c1.4,0,2.4-0.2,3.2-0.8s1.1-1.3,1.1-2.3
		c0-0.8-0.3-1.5-1-2s-1.7-1-3.2-1.3c-3.1-0.7-5.2-1.7-6.4-2.9s-1.8-2.8-1.8-4.7c0-2.2,0.9-4.1,2.6-5.5s4-2.1,6.8-2.1
		c1.4,0,2.7,0.2,3.9,0.5s2.5,0.9,3.6,1.7l-2.2,3.8c-1-0.7-2-1.1-2.9-1.4s-1.8-0.4-2.7-0.4c-1.3,0-2.4,0.2-3.1,0.8s-1.1,1.2-1.1,2.1
		s0.4,1.6,1.1,2s1.9,0.9,3.7,1.3c2.7,0.6,4.6,1.6,5.9,2.8s1.9,2.8,1.9,4.9c0,2.4-0.9,4.2-2.6,5.7s-4.1,2.1-7,2.1
		c-1.6,0-3.1-0.2-4.6-0.6S121.5,379.9,120.2,379.1z"/>
	<path class="st1" d="M165.5,356.4l-11.3,29c-0.9,2.3-2.1,4-3.6,5.2s-3.3,1.8-5.5,1.8c-0.6,0-1.2,0-1.8-0.1s-1.1-0.2-1.6-0.3l1-4.3
		c0.4,0.1,0.7,0.2,1,0.3s0.6,0.1,1,0.1c0.9,0,1.7-0.2,2.3-0.7s1.2-1.2,1.6-2.1l1.8-4.2l-9.8-24.5h6.2l5.7,17.1
		c0.1,0.3,0.2,0.7,0.3,1.1s0.2,0.9,0.3,1.5h0.1c0.1-0.3,0.1-0.7,0.2-1.1s0.2-0.9,0.4-1.4l6-17.2H165.5z"/>
	<path class="st1" d="M175.8,369.3V381h-5.7v-33.6h10.5c3.9,0,6.9,0.9,8.9,2.7s3.1,4.4,3.1,7.9c0,3.4-1.2,6.1-3.5,8.2
		s-5.4,3.1-9.3,3.1H175.8z M175.8,352.1v12.6h3.6c2.4,0,4.2-0.5,5.4-1.6s1.8-2.7,1.8-4.8c0-2.1-0.6-3.6-1.7-4.7s-2.9-1.5-5.2-1.5
		H175.8z"/>
	<path class="st1" d="M207.4,381.6c-3.9,0-6.9-1.2-9.2-3.5s-3.4-5.4-3.4-9.2c0-4.1,1.2-7.3,3.5-9.6s5.5-3.5,9.5-3.5
		c3.8,0,6.9,1.1,9,3.4s3.3,5.4,3.3,9.3c0,4-1.1,7.2-3.4,9.6S211.3,381.6,207.4,381.6z M207.6,377.2c2.2,0,3.9-0.7,5.1-2.2
		s1.7-3.6,1.7-6.3c0-2.7-0.6-4.8-1.7-6.2s-2.9-2.1-5.1-2.1c-2.2,0-3.9,0.8-5.2,2.3s-1.9,3.6-1.9,6.3s0.6,4.7,1.9,6.2
		S205.4,377.2,207.6,377.2z"/>
	<path class="st1" d="M226.1,381v-35.5h5.6V381H226.1z"/>
	<path class="st1" d="M242,352.1c-1,0-1.9-0.3-2.5-1s-1-1.4-1-2.4c0-1,0.3-1.8,1-2.4s1.5-0.9,2.5-0.9s1.9,0.3,2.5,0.9s1,1.4,1,2.4
		c0,1-0.3,1.7-1,2.4S243,352.1,242,352.1z M244.7,381h-5.6v-24.6h5.6V381z"/>
	<path class="st1" d="M277.7,379.3c-1.7,0.8-3.4,1.4-5,1.8s-3.4,0.5-5.2,0.5c-5.2,0-9.2-1.5-12.1-4.5s-4.4-7.1-4.4-12.4
		c0-5.3,1.6-9.6,4.8-12.9s7.4-5,12.6-5c1.7,0,3.3,0.1,4.7,0.4s2.9,0.7,4.3,1.4l-1.9,4.7c-1.2-0.5-2.3-0.9-3.4-1.1s-2.3-0.3-3.6-0.3
		c-3.4,0-6.1,1.1-8.3,3.4s-3.3,5.3-3.3,9.1c0,3.8,1,6.8,3,8.9s4.7,3.3,8.1,3.3c1.1,0,2.3-0.1,3.6-0.4s2.5-0.8,3.8-1.5L277.7,379.3z"
		/>
	<path class="st1" d="M304.9,381h-5.6v-14.1c0-2.2-0.4-3.9-1.2-5s-2-1.7-3.7-1.7s-3,0.6-4.1,1.9s-1.7,2.9-1.7,4.9v14H283v-35.5h5.6
		v14.8h0.1c0.9-1.5,2.1-2.6,3.4-3.4s2.8-1.1,4.5-1.1c2.8,0,4.9,0.8,6.2,2.5s2.1,4.2,2.1,7.5V381z"/>
	<path class="st1" d="M332.7,370.1h-16.8c0.1,2.3,0.8,4.1,2,5.3s3,1.8,5.3,1.8c0.9,0,1.9-0.2,3.1-0.6s2.4-1,3.5-1.8l2.5,3.5
		c-1.5,1.1-3.1,1.9-4.7,2.4s-3.3,0.8-5.2,0.8c-3.8,0-6.8-1.1-8.9-3.3s-3.2-5.3-3.2-9.3c0-3.9,1.1-7.1,3.3-9.6s5-3.6,8.5-3.6
		c3.3,0,5.9,1,7.8,3.1s2.8,5,2.8,8.8V370.1z M327.4,366.3c0-2.1-0.5-3.7-1.4-4.8s-2.2-1.6-3.9-1.6c-1.6,0-2.9,0.6-4.1,1.7
		s-1.8,2.7-2,4.7H327.4z"/>
	<path class="st1" d="M356.9,379.4c-1.2,0.8-2.4,1.3-3.7,1.7s-2.6,0.5-4,0.5c-3.8,0-6.8-1.1-9.1-3.3s-3.4-5.2-3.4-9
		c0-4.1,1.2-7.4,3.5-9.8s5.5-3.6,9.5-3.6c1.4,0,2.6,0.1,3.8,0.4s2.3,0.8,3.4,1.4l-2.2,3.9c-0.8-0.5-1.6-0.8-2.4-1s-1.6-0.3-2.5-0.3
		c-2.4,0-4.2,0.8-5.5,2.3s-1.9,3.6-1.9,6.2c0,2.7,0.7,4.7,2.1,6.2s3.1,2.2,5.2,2.2c0.7,0,1.4-0.1,2.3-0.4s1.7-0.6,2.5-1.2
		L356.9,379.4z"/>
	<path class="st1" d="M384.3,381h-7.1l-9.5-12h-0.1v12H362v-35.5h5.6v22.3h0.1l9-11.3h6.9l-10.2,11.7L384.3,381z"/>
</g>
</svg>
